<svg width="161" height="42" viewBox="0 0 161 42" fill="none" xmlns="http://www.w3.org/2000/svg">
<g clip-path="url(#clip0_207_12)">
<path d="M23.5 25.3318C25.7644 25.3318 27.6 23.4962 27.6 21.2318C27.6 18.9675 25.7644 17.1318 23.5 17.1318C21.2356 17.1318 19.4 18.9675 19.4 21.2318C19.4 23.4962 21.2356 25.3318 23.5 25.3318Z" fill="#61DAFB"/>
<path d="M23.5 29.6318C35.6503 29.6318 45.5 25.871 45.5 21.2318C45.5 16.5926 35.6503 12.8318 23.5 12.8318C11.3497 12.8318 1.5 16.5926 1.5 21.2318C1.5 25.871 11.3497 29.6318 23.5 29.6318Z" stroke="#61DAFB" stroke-width="2"/>
<path d="M16.2254 25.4318C22.3005 35.9542 30.4823 42.604 34.5 40.2844C38.5177 37.9648 36.8497 27.5542 30.7746 17.0318C24.6995 6.50937 16.5177 -0.140348 12.5 2.17925C8.48234 4.49884 10.1503 14.9094 16.2254 25.4318Z" stroke="#61DAFB" stroke-width="2"/>
<path d="M16.2254 17.0317C10.1503 27.5541 8.48234 37.9647 12.5 40.2843C16.5177 42.6039 24.6995 35.9541 30.7746 25.4317C36.8497 14.9093 38.5177 4.49875 34.5 2.17915C30.4823 -0.140446 22.3005 6.50927 16.2254 17.0317Z" stroke="#61DAFB" stroke-width="2"/>
</g>
<path d="M56.724 30.2317H54.42V13.0717H61.188C62.356 13.0717 63.372 13.2797 64.236 13.6957C65.1 14.1117 65.772 14.6877 66.252 15.4237C66.748 16.1597 66.996 17.0237 66.996 18.0157C66.996 19.0077 66.748 19.8717 66.252 20.6077C65.772 21.3437 65.1 21.9197 64.236 22.3357C63.372 22.7517 62.356 22.9597 61.188 22.9597H56.484V20.9677H61.188C62.26 20.9677 63.1 20.7117 63.708 20.1997C64.332 19.6717 64.644 18.9437 64.644 18.0157C64.644 17.0877 64.332 16.3677 63.708 15.8557C63.1 15.3277 62.26 15.0637 61.188 15.0637H56.724V30.2317ZM68.7 30.2317H65.796L59.364 22.2397H62.052L68.7 30.2317ZM79.3414 26.7277L80.7334 28.1677C80.1094 28.9357 79.3414 29.5357 78.4294 29.9677C77.5334 30.3997 76.5174 30.6157 75.3814 30.6157C74.0854 30.6157 72.9334 30.3437 71.9254 29.7997C70.9174 29.2557 70.1254 28.5117 69.5494 27.5677C68.9894 26.6077 68.7094 25.5117 68.7094 24.2797C68.7094 23.0477 68.9814 21.9597 69.5254 21.0157C70.0694 20.0557 70.8214 19.3037 71.7814 18.7597C72.7414 18.2157 73.8214 17.9437 75.0214 17.9437C76.1894 17.9437 77.2214 18.2157 78.1174 18.7597C79.0294 19.2877 79.7414 20.0237 80.2534 20.9677C80.7814 21.8957 81.0454 22.9757 81.0454 24.2077V24.3517H78.7894V24.1357C78.7894 23.2717 78.6294 22.5197 78.3094 21.8797C77.9894 21.2237 77.5414 20.7197 76.9654 20.3677C76.4054 19.9997 75.7574 19.8157 75.0214 19.8157C74.2374 19.8157 73.5414 19.9997 72.9334 20.3677C72.3254 20.7357 71.8534 21.2557 71.5174 21.9277C71.1814 22.5837 71.0134 23.3597 71.0134 24.2557C71.0134 25.1517 71.1974 25.9437 71.5654 26.6317C71.9494 27.3037 72.4774 27.8237 73.1494 28.1917C73.8214 28.5597 74.5894 28.7437 75.4534 28.7437C77.0374 28.7437 78.3334 28.0717 79.3414 26.7277ZM81.0454 25.0237H70.3654V23.3677H80.6614L81.0454 24.2077V25.0237ZM93.516 30.2317H91.428V27.8797L91.356 27.3037V22.8637C91.356 21.9197 91.052 21.1757 90.444 20.6317C89.836 20.0717 89.012 19.7917 87.972 19.7917C87.22 19.7917 86.532 19.9517 85.908 20.2717C85.284 20.5757 84.74 20.9997 84.276 21.5437L82.884 20.1037C83.54 19.4157 84.292 18.8877 85.14 18.5197C86.004 18.1357 86.964 17.9437 88.02 17.9437C89.108 17.9437 90.06 18.1437 90.876 18.5437C91.708 18.9437 92.356 19.5037 92.82 20.2237C93.284 20.9277 93.516 21.7837 93.516 22.7917V30.2317ZM87.036 30.6157C86.14 30.6157 85.348 30.4557 84.66 30.1357C83.972 29.7997 83.436 29.3437 83.052 28.7677C82.668 28.1917 82.476 27.5357 82.476 26.7997C82.476 25.9677 82.708 25.2637 83.172 24.6877C83.652 24.0957 84.308 23.6477 85.14 23.3437C85.972 23.0237 86.924 22.8637 87.996 22.8637H91.62V24.5197H88.236C87.228 24.5197 86.396 24.7037 85.74 25.0717C85.1 25.4237 84.78 25.9757 84.78 26.7277C84.78 27.3677 85.02 27.8797 85.5 28.2637C85.996 28.6477 86.636 28.8397 87.42 28.8397C88.188 28.8397 88.884 28.6877 89.508 28.3837C90.132 28.0797 90.628 27.6557 90.996 27.1117C91.38 26.5517 91.596 25.9117 91.644 25.1917L92.436 25.6237C92.436 26.5837 92.204 27.4397 91.74 28.1917C91.276 28.9437 90.636 29.5357 89.82 29.9677C89.02 30.3997 88.092 30.6157 87.036 30.6157ZM105.339 26.8477L106.851 28.2877C106.275 29.0077 105.563 29.5757 104.715 29.9917C103.867 30.4077 102.907 30.6157 101.835 30.6157C100.619 30.6157 99.5308 30.3437 98.5708 29.7997C97.6268 29.2557 96.8828 28.5117 96.3388 27.5677C95.7948 26.6077 95.5228 25.5117 95.5228 24.2797C95.5228 23.0637 95.7948 21.9837 96.3388 21.0397C96.8828 20.0797 97.6348 19.3277 98.5948 18.7837C99.5708 18.2237 100.667 17.9437 101.883 17.9437C102.939 17.9437 103.883 18.1517 104.715 18.5677C105.563 18.9837 106.275 19.5517 106.851 20.2717L105.339 21.7117C104.971 21.1517 104.507 20.7037 103.947 20.3677C103.387 20.0317 102.715 19.8637 101.931 19.8637C101.131 19.8637 100.419 20.0557 99.7948 20.4397C99.1868 20.8077 98.7068 21.3277 98.3548 21.9997C98.0188 22.6557 97.8508 23.4157 97.8508 24.2797C97.8508 25.1437 98.0188 25.9117 98.3548 26.5837C98.7068 27.2397 99.1868 27.7597 99.7948 28.1437C100.419 28.5117 101.131 28.6957 101.931 28.6957C102.731 28.6957 103.403 28.5277 103.947 28.1917C104.507 27.8557 104.971 27.4077 105.339 26.8477ZM115.989 30.2317H113.133C112.205 30.2317 111.493 29.9917 110.997 29.5117C110.517 29.0157 110.277 28.3117 110.277 27.3997V14.9677H112.509V27.1117C112.509 27.5117 112.613 27.8237 112.821 28.0477C113.029 28.2557 113.333 28.3597 113.733 28.3597H115.989V30.2317ZM115.821 20.1997H107.949V18.3277H115.821V20.1997ZM132.102 13.0717V23.4637C132.102 25.7197 131.478 27.4797 130.23 28.7437C128.998 29.9917 127.286 30.6157 125.094 30.6157C122.918 30.6157 121.206 29.9917 119.958 28.7437C118.71 27.4797 118.086 25.7197 118.086 23.4637V13.0717H120.39V23.4637C120.39 25.0957 120.798 26.3517 121.614 27.2317C122.446 28.1117 123.606 28.5517 125.094 28.5517C126.598 28.5517 127.758 28.1117 128.574 27.2317C129.406 26.3517 129.822 25.0957 129.822 23.4637V13.0717H132.102ZM133.963 28.4077L135.379 26.9677C135.939 27.5437 136.579 27.9997 137.299 28.3357C138.019 28.6557 138.803 28.8157 139.651 28.8157C140.547 28.8157 141.275 28.6397 141.835 28.2877C142.395 27.9197 142.675 27.4557 142.675 26.8957C142.675 26.3837 142.435 25.9917 141.955 25.7197C141.475 25.4317 140.643 25.2077 139.459 25.0477C137.683 24.7917 136.411 24.3997 135.643 23.8717C134.891 23.3277 134.515 22.5917 134.515 21.6637C134.515 20.9277 134.731 20.2797 135.163 19.7197C135.595 19.1597 136.187 18.7277 136.939 18.4237C137.691 18.1037 138.555 17.9437 139.531 17.9437C140.619 17.9437 141.595 18.1357 142.459 18.5197C143.323 18.9037 144.075 19.4397 144.715 20.1277L143.323 21.5677C142.843 21.0077 142.283 20.5677 141.643 20.2477C141.019 19.9117 140.315 19.7437 139.531 19.7437C138.715 19.7437 138.043 19.9117 137.515 20.2477C137.003 20.5837 136.747 21.0157 136.747 21.5437C136.747 21.9597 136.971 22.2877 137.419 22.5277C137.883 22.7517 138.675 22.9437 139.795 23.1037C141.603 23.3597 142.899 23.7757 143.683 24.3517C144.483 24.9277 144.883 25.7357 144.883 26.7757C144.883 27.5277 144.659 28.1997 144.211 28.7917C143.763 29.3677 143.139 29.8157 142.339 30.1357C141.555 30.4557 140.643 30.6157 139.603 30.6157C138.435 30.6157 137.379 30.4237 136.435 30.0397C135.507 29.6397 134.683 29.0957 133.963 28.4077ZM157.04 26.7277L158.431 28.1677C157.807 28.9357 157.039 29.5357 156.127 29.9677C155.231 30.3997 154.215 30.6157 153.079 30.6157C151.783 30.6157 150.631 30.3437 149.623 29.7997C148.615 29.2557 147.823 28.5117 147.247 27.5677C146.687 26.6077 146.407 25.5117 146.407 24.2797C146.407 23.0477 146.679 21.9597 147.223 21.0157C147.767 20.0557 148.519 19.3037 149.479 18.7597C150.439 18.2157 151.519 17.9437 152.72 17.9437C153.887 17.9437 154.919 18.2157 155.815 18.7597C156.727 19.2877 157.439 20.0237 157.951 20.9677C158.479 21.8957 158.743 22.9757 158.743 24.2077V24.3517H156.488V24.1357C156.488 23.2717 156.328 22.5197 156.007 21.8797C155.687 21.2237 155.239 20.7197 154.664 20.3677C154.103 19.9997 153.455 19.8157 152.72 19.8157C151.935 19.8157 151.239 19.9997 150.631 20.3677C150.023 20.7357 149.551 21.2557 149.215 21.9277C148.879 22.5837 148.711 23.3597 148.711 24.2557C148.711 25.1517 148.895 25.9437 149.263 26.6317C149.647 27.3037 150.175 27.8237 150.847 28.1917C151.519 28.5597 152.287 28.7437 153.151 28.7437C154.735 28.7437 156.031 28.0717 157.04 26.7277ZM158.743 25.0237H148.063V23.3677H158.36L158.743 24.2077V25.0237Z" fill="#FFFFF5"/>
<defs>
<clipPath id="clip0_207_12">
<rect width="46" height="40.927" fill="white" transform="translate(0.5 0.768311)"/>
</clipPath>
</defs>
</svg>
