<svg width="230" height="205" viewBox="0 0 230 205" fill="none" xmlns="http://www.w3.org/2000/svg">
<g clip-path="url(#clip0_6_2)">
<path d="M115 122.817C126.322 122.817 135.5 113.639 135.5 102.317C135.5 90.9955 126.322 81.8174 115 81.8174C103.678 81.8174 94.5 90.9955 94.5 102.317C94.5 113.639 103.678 122.817 115 122.817Z" fill="#61DAFB"/>
<path d="M115 144.317C175.751 144.317 225 125.513 225 102.317C225 79.1215 175.751 60.3174 115 60.3174C54.2487 60.3174 5 79.1215 5 102.317C5 125.513 54.2487 144.317 115 144.317Z" stroke="#61DAFB" stroke-width="10"/>
<path d="M78.6269 123.317C109.003 175.93 149.912 209.178 170 197.58C190.088 185.982 181.749 133.93 151.373 81.3174C120.997 28.7052 80.0883 -4.54335 60 7.05463C39.9117 18.6526 48.2513 70.7052 78.6269 123.317Z" stroke="#61DAFB" stroke-width="10"/>
<path d="M78.6269 81.3174C48.2513 133.93 39.9117 185.982 60 197.58C80.0883 209.178 120.997 175.93 151.373 123.317C181.749 70.7052 190.088 18.6526 170 7.05463C149.912 -4.54335 109.003 28.7052 78.6269 81.3174Z" stroke="#61DAFB" stroke-width="10"/>
</g>
<defs>
<clipPath id="clip0_6_2">
<rect width="230" height="204.635" fill="white"/>
</clipPath>
</defs>
</svg>
